<svg width="24" height="17" viewBox="0 0 24 17" fill="none" xmlns="http://www.w3.org/2000/svg">
<path d="M14.9464 0.516025L15.0573 0.390427C15.538 -0.0901688 16.2943 -0.127063 16.8173 0.279691L16.9429 0.390622L23.6051 7.05415C24.0854 7.53458 24.1225 8.29038 23.7164 8.81341L23.6056 8.93902L16.9435 15.6103C16.4231 16.1313 15.5789 16.1319 15.0578 15.6116C14.5769 15.1313 14.5394 14.375 14.9457 13.8516L15.0566 13.726L19.4413 9.33333H1.33333C0.649552 9.33333 0.0859907 8.81861 0.00897058 8.15549L0 8C0 7.31622 0.51472 6.75266 1.17784 6.67564L1.33333 6.66667H19.4453L15.0571 2.27605C14.5765 1.79535 14.5396 1.03904 14.9464 0.516025L15.0573 0.390427L14.9464 0.516025Z" fill="white"/>
</svg>
